# xmcd
#
# Track frame offsets:
#	150
#	19452
#	34762
#	52877
#	73890
#	91285
#	110807
#	128345
#
# Disc length: 1919 seconds
#
# Revision: 2
# Processed by: cddbd v1.5.2PL0 Copyright (c) Steve Scherf et al.
# Submitted via: EasyCDDAExtractor 12.1.0.1
#
DISCID=69077d08
DTITLE=The Whispers - Happy Holidays To You Disc 2
DYEAR=2002
DGENRE=Soul
TTITLE0=Funky Christmas
TTITLE1=This Time Of The Year
TTITLE2=Sant Claus Is Coming To Town
TTITLE3=Happy Holidays To You
TTITLE4=A Very Special Holiday
TTITLE5=This Christmas
TTITLE6=The Christmas Song
TTITLE7=White Christmas
EXTD=
EXTT0=
EXTT1=
EXTT2=
EXTT3=
EXTT4=
EXTT5=
EXTT6=
EXTT7=
PLAYORDER=
